<svg xmlns="http://www.w3.org/2000/svg" viewBox="0 0 92 92" isolation="isolate">
  <path fill="#73b6bf" d="M75 14.553C75.36 13.265 76.83 12.623 77.018 14.553 77.464 14.581 77.653 14.208 77.659 13.923 77.691 11.754 78.921 10.223 80.289 8.737 80.908 8.067 81.06 7.224 80.562 6.439 80.021 5.586 79.175 5.302 78.169 5.53 75.316 6.177 72.449 6.762 70.01 8.556 67.997 10.037 66.088 11.639 64.472 13.536 63.909 14.197 63.361 14.823 62.703 15.397 61.709 16.263 60.553 17.128 59.98 18.254 58.484 21.193 56.017 22.426 52.981 22.968 52.399 23.072 51.727 22.968 51.255 23.48 54.057 24.054 54.083 25.741 49.985 25.739 47.533 25.738 48.429 24.042 49.489 23.475 49.149 22.992 48.64 23.15 48.239 23.247 46.54 23.65 44.813 24.029 43.087 24.031 40.612 24.034 38.031 24.005 36.193 21.909 34.811 20.332 33.348 18.806 32.236 17.017 30.852 14.789 28.727 13.467 26.542 12.218 25.996 11.906 25.382 11.54 24.671 11.793 26.027 12.614 21.68 16.689 20.535 18.872 18.798 15.738 17.669 13.658 17.583 13.385 17.362 14.004 17.172 14.635 16.913 15.237 16.531 16.123 16.233 17.015 16.238 17.996 16.248 20.203 16.642 22.372 16.908 24.551 17.268 27.5 18.676 30.204 18.714 33.278 18.744 35.655 18.69 37.548 16.371 39.039 14.259 40.397 13.18 42.675 12.98 45.274 12.766 48.038 12.938 50.799 11.667 53.482 10.498 55.95 10.718 58.669 11.335 61.398 12.241 65.403 14.806 67.665 18.559 68.367 21.064 68.836 23.188 70.794 23.024 74.014 23.003 74.433 23.184 74.933 23.433 75.281 23.936 75.985 24.545 76.616 25.12 77.268 25.875 78.127 26.801 78.413 27.918 78.121 29.407 77.731 30.87 77.802 32.296 78.42 32.603 78.554 32.939 78.65 33.27 78.525 33.174 78.807 33.292 78.99 33.51 79.127 34.53 79.749 35.131 80.79 35.981 81.566 38.409 83.782 40.947 85.881 44.345 86.42 47.054 86.85 49.794 87.376 52.276 85.555 52.568 85.341 52.953 85.221 53.313 85.137 56.833 84.321 59.804 82.538 62.4 80.066 62.727 79.754 63.161 79.559 63.509 79.266 64.492 78.437 65.975 78.135 66.572 76.978 67.36 75.451 68.422 74.209 69.535 72.935 71.409 70.791 72.495 68.213 73.015 65.4 73.253 64.112 73.823 62.981 74.669 61.959 75.408 61.065 76.177 60.132 76.463 58.988 77.247 55.853 78.031 52.693 78.003 49.445 77.97 45.71 77.696 41.988 76.483 38.393 75.967 36.863 75.681 35.279 75.737 33.624 75.782 32.263 76.26 31.025 76.514 29.727 77.237 26.034 76.823 22.291 76.925 18.573 76.948 17.729 77.031 16.724 76.457 15.916 75.555 16.318 74.64 15.841 75 14.553ZM21.757 10.069C20.924 10.016 20.075 10.299 19.255 9.951 20.11 9.541 20.953 9.41 21.757 10.069L21.757 10.069 21.757 10.069Z" />
  <path fill="#003941" d="M49.489 23.475C50.077 23.595 50.666 23.632 51.255 23.48 54.057 24.054 56.51 23.275 58.601 21.42 60.024 20.158 61.258 18.718 62.444 17.203 64.636 14.404 67.509 12.259 70.118 9.857 72.506 7.659 75.402 7.069 78.322 6.339 78.868 6.202 79.393 6.195 79.787 6.714 80.201 7.257 79.961 7.754 79.653 8.204 79.351 8.646 78.975 9.039 78.622 9.444 77.34 10.914 76.831 12.623 77.018 14.553 76.67 14.939 76.492 15.394 76.459 15.91 75.557 16.313 74.655 16.715 73.796 17.098 73.515 16.904 73.604 16.68 73.568 16.487 73.428 15.706 71.591 13.767 70.997 13.888 69.769 14.138 68.479 14.276 67.544 15.29 67.152 15.713 66.746 16.157 66.157 16.315 65.232 16.564 64.859 17.249 64.627 18.1 64.392 18.961 64.566 19.813 64.518 20.698 65.436 20.687 66.039 19.857 67.073 19.885 66.879 20.143 66.81 20.338 66.685 20.385 64.973 21.021 64.306 22.955 62.627 23.635 62.336 23.754 61.918 24.013 62.07 24.352 62.253 24.759 62.785 24.802 63.166 24.659 63.538 24.519 63.848 24.203 64.172 23.949 64.695 23.538 65.161 23.033 65.91 22.791 65.678 24.127 64.952 24.849 63.914 25.336 63.351 25.6 62.811 25.917 62.284 26.246 61.887 26.493 61.766 26.739 61.898 27.333 62.23 28.827 63.1 28.51 64.044 28.102 64.14 28.643 63.713 29.075 64.169 29.673 64.626 28.881 65.454 29.378 66.107 29.049 66.294 28.955 66.522 29.11 66.573 29.342 66.59 29.421 66.468 29.613 66.417 29.611 65.77 29.575 65.178 30.295 64.677 30.063 63.587 29.559 63.773 30.259 63.804 30.821 63.841 31.481 63.726 32.334 64.085 32.748 64.606 33.348 65.277 32.359 65.981 32.488 66.059 32.777 64.56 33.486 64.512 34.586 67.347 34.018 68.814 31.758 70.677 30.07 71.854 29.004 71.923 27.172 73.205 26.139 72.695 25.026 73.774 24.104 73.603 23.069 73.331 21.42 74.531 20.007 74.171 18.293 73.976 17.364 75.075 17.03 75.985 16.794 75.946 19.082 76.109 21.303 75.726 23.479 75.335 25.701 75.429 27.955 75.075 30.175 74.625 32.988 74.414 35.811 75.625 38.511 76.166 39.719 76.313 40.998 76.415 42.274 76.531 43.727 76.69 45.169 76.918 46.606 77.004 47.144 76.948 47.681 76.794 48.212 76.702 48.529 76.578 48.807 76.213 48.653 75.158 48.21 74.083 48.625 73.02 48.541 72.254 48.48 71.957 49.088 72.416 49.726 72.624 50.015 72.98 50.202 73.28 50.419 73.477 50.563 73.791 50.692 73.45 50.949 72.894 51.369 73.308 51.795 73.428 52.18 73.901 53.715 73.917 53.709 72.451 54.014 72.411 54.022 72.394 54.14 72.335 54.283 72.927 54.793 73.659 54.567 74.329 54.615 74.738 54.643 75.157 54.552 75.411 55.029 75.931 56.002 76.305 56.915 75.844 58.093 75.352 59.353 74.791 60.546 73.906 61.554 72.873 62.728 72.255 64.07 72.217 65.617 72.181 67.112 71.676 68.092 70.036 68.173 69.907 68.179 69.717 68.262 69.782 68.488 70.1 68.852 70.589 68.517 71.016 68.821 70.687 69.384 70.375 69.962 70.023 70.513 69.091 71.968 68.51 72.005 67.344 70.703 67.261 70.611 67.2 70.5 67.128 70.399 66.493 69.514 64.038 68.889 62.77 69.425Q63.582 69.827 64.98 70.499C64.469 70.442 63.928 69.894 63.475 70.326 63.053 70.729 63.603 71.247 63.742 71.928 61.961 70.603 59.805 70.394 58.082 68.815 58.909 68.919 59.475 69.003 60.042 69.059 60.409 69.096 60.785 69.032 60.577 68.535 60.242 67.735 59.892 66.984 58.734 67.139 58.053 67.229 57.336 67.006 56.631 66.963 56.355 66.946 55.962 66.583 55.809 67.133 55.695 67.541 55.253 67.927 55.695 68.387 55.935 68.637 56.121 68.9 55.863 69.295 54.668 69 54.276 67.131 52.569 67.633 53.631 68.765 54.895 69.455 56.183 70.117 56.539 70.301 56.642 70.071 56.872 69.871 57.275 69.522 57.737 69.754 58.143 69.985 58.376 70.119 58.566 70.339 58.364 70.591 57.608 71.534 58.095 72.481 58.286 73.443 58.362 73.825 58.558 74.189 58.38 74.632 57.946 75.71 58.348 76.58 59.562 77.352 60.438 77.909 60.824 77.047 61.335 76.68 62.062 76.159 62.607 75.352 63.638 75.368 63.713 75.522 64.079 75.252 63.955 75.13 64.026 74.052 63.178 73.354 62.792 72.311 63.782 72.856 64.667 73.371 65.579 73.832 66.121 74.105 66.165 74.411 65.887 74.921 65.203 76.177 64.146 77.018 62.942 77.718 61.776 78.397 60.72 79.161 60.277 80.549 60.154 80.936 59.951 81.412 59.443 81.516 59.095 81.194 59.166 80.592 58.569 80.434 58.077 81.307 57.971 82.61 56.86 82.878 55.043 83.317 53.325 84.066 51.5 84.441 51.028 84.538 50.58 84.599 50.108 84.776 47.411 85.788 44.71 85.815 42.002 84.693 40.932 84.251 40.399 83.658 40.743 82.485 40.859 82.467 41.017 82.469 40.818 82.314 40.801 82.377 40.784 82.442 40.767 82.505 39.707 83.316 38.833 82.792 37.986 82.112 37.632 81.828 37.311 81.498 36.936 81.246 36.389 80.879 36.393 80.689 36.987 80.32 37.584 79.948 37.906 79.272 38.342 78.525 37.521 78.761 37.091 79.234 36.728 79.7 36.349 80.186 36.161 80.183 35.699 79.789 34.995 79.188 34.268 78.556 33.266 78.473L33.27 78.476C32.832 77.564 31.873 77.57 31.099 77.291 30.095 76.931 29.983 76.619 30.748 75.87 31.588 75.049 32.542 74.557 33.773 74.694 35.263 74.861 36.759 74.998 38.143 74.184 38.631 73.897 38.909 74.062 39.02 74.614 39.058 74.801 39.176 75.066 39.322 75.12 40.683 75.625 40.758 76.347 39.742 77.296 39.579 77.448 39.464 77.643 39.631 77.834 39.723 77.939 39.95 78.051 40.048 78.007 41.056 77.561 42.426 78.227 43.137 76.721 43.344 77.738 42.887 78.229 42.52 78.785 42.178 79.305 41.668 79.789 41.746 80.488 42.461 80.309 42.832 79.691 43.463 79.334 44.537 78.875 44.909 77.968 44.706 77.013 44.49 75.999 43.963 74.992 42.532 75.128 42.988 73.909 44.036 73.643 44.855 73.104 45.299 73.574 45.063 74.196 45.3 74.568 45.9 74.742 46.092 73.446 46.667 74.302 46.956 74.733 47.114 74.827 47.501 74.514 47.933 74.163 47.709 73.863 47.434 73.576 47.193 73.324 46.986 73.054 47.111 72.691 47.388 71.886 47.226 71.277 46.338 71.031 46.734 70.396 47.244 70.525 47.739 70.548 48.049 70.562 48.489 70.757 48.626 70.36 48.777 69.918 48.482 69.571 48.072 69.368 47.263 68.966 46.389 68.665 45.892 67.816 45.164 68.423 45.379 69.544 44.566 69.94 41.792 71.295 38.982 72.601 35.76 71.961 34.368 71.685 33.196 72.608 31.843 72.52 30.789 72.451 29.114 73.86 28.803 74.96 29.163 75.254 29.704 74.601 29.921 75.072 30.15 75.572 29.703 75.994 29.408 76.393 29.008 76.935 28.44 77.141 27.802 77.24 26.233 77.482 25.986 77.226 26.429 75.526 25.048 76.323 24.547 75.525 24.006 74.481 23.485 73.478 24.081 73.067 24.816 72.502 24.214 72.583 23.928 72.371 23.774 71.925 23.42 70.904 23.021 69.899 22.687 68.872 22.584 68.556 22.628 68.147 22.181 68.148 20.175 68.151 18.655 66.814 16.861 66.229 15.96 65.935 15.167 65.399 14.58 64.568 12.313 61.357 11.653 57.899 12.683 54.078 13.37 51.53 14.024 48.955 13.805 46.268 13.749 45.59 14.002 45.095 14.473 44.612 15.505 43.554 16.639 42.633 17.994 41.92 15.663 40.067 15.745 40.173 18.155 39.014 18.192 38.996 18.233 38.986 18.272 38.97 19.203 38.592 19.758 37.952 19.769 36.899 19.791 34.66 19.755 32.425 19.568 30.191 19.444 28.715 18.442 27.511 18.435 26.001 18.427 24.376 18.149 22.788 17.628 21.232 17.209 19.98 17.069 18.755 17.466 17.364 17.818 16.133 18.007 14.721 17.586 13.383 17.558 13.142 17.538 12.899 17.5 12.66 17.407 12.075 16.538 11.622 16.916 11.067 17.302 10.5 18.108 10.317 18.802 10.114 18.958 10.069 19.108 10.005 19.26 9.949 20.08 10.297 20.928 10.014 21.762 10.067 22.747 10.617 23.614 11.368 24.676 11.79 26.355 12.807 27.32 14.867 29.552 15.099 29.813 15.126 30.091 15.482 30.268 15.747 31.181 17.117 32.037 18.534 33.15 19.75 35.17 21.957 36.843 24.675 40.31 24.861 41.139 24.905 41.979 25.044 42.796 24.963 45.079 24.739 47.396 24.594 49.489 23.475ZM47.397 39.376C46.927 40.166 46.625 41.282 45.743 41.438 44.992 41.57 45.028 41.971 44.83 42.394 44.287 43.553 44.888 44.688 44.883 45.835 44.88 46.578 44.662 47.468 44.988 48.033 45.702 49.273 45.983 50.58 46.023 51.933 46.061 53.244 46.421 54.517 45.875 55.915 45.573 56.687 45.875 57.693 44.843 58.154 44.525 58.297 44.173 58.426 44.438 58.859 44.744 59.36 45.026 58.921 45.236 58.753 45.948 58.186 46.456 58.065 46.608 59.2 46.649 59.505 46.856 59.721 47.195 59.757 47.613 59.801 47.837 59.491 47.931 59.2 48.134 58.573 48.322 57.92 48.361 57.267 48.392 56.735 47.721 56.692 47.419 56.364 47.13 56.051 46.8 55.724 46.763 55.33 46.69 54.569 46.233 53.532 47.308 53.211 48.005 53.002 47.979 52.743 47.793 52.282 47.626 51.865 47.577 51.366 47.779 51.072 48.317 50.287 47.893 49.604 47.779 48.856 47.668 48.123 46.631 47.1 48.274 46.711 48.469 46.665 48.578 46.238 48.72 45.984 48.842 45.768 48.956 45.461 49.245 45.546 49.979 45.762 49.991 45.285 50.009 44.81 50.041 43.978 50.038 43.146 50.084 42.315 50.11 41.837 49.903 41.488 49.463 41.669 48.333 42.13 48.23 41.378 48.012 40.623 47.891 40.203 47.812 39.729 47.397 39.376ZM69.874 56.535C68.751 56.346 67.935 56.051 67.119 55.745 66.698 55.587 66.112 55.34 65.813 55.715 64.874 56.894 64.106 55.999 63.25 55.646 62.278 55.246 61.74 54.878 63.311 54.326 60.81 53.481 58.585 54.608 56.076 54.414 56.635 55.119 57.23 55.085 57.716 55.291 57.524 55.616 57.055 55.515 56.962 55.931 57.275 56.231 58.025 56.19 57.905 57.007 57 56.752 56.541 55.992 55.842 55.59 55.568 55.432 55.232 54.979 55.013 55.24 54.67 55.648 54.463 56.219 54.355 56.753 54.294 57.052 54.62 57.365 54.993 57.41 56.056 57.536 57.037 58.169 58.169 57.905 58.477 57.833 58.847 57.752 59.075 58.106 59.132 58.194 59.166 58.368 59.118 58.439 58.84 58.849 58.446 58.618 58.095 58.581 57.454 58.513 56.791 58.339 56.296 59.07 56.739 59.443 57.25 59.412 57.723 59.522 58.314 59.659 59.052 59.535 59.452 60.057 60.319 61.193 61.315 60.871 62.348 60.449 62.77 60.277 63.159 60.075 63.65 60.086 64.99 60.115 65.968 59.516 66.49 58.258 66.637 57.904 66.735 57.435 67.226 57.644 68.396 58.143 68.937 57.257 69.874 56.535ZM58.005 48.552C58.073 49.327 57.783 50.022 57.511 50.719 57.359 51.11 57.099 51.689 56.679 51.336 56.188 50.925 55.175 50.586 55.349 49.948 55.676 48.743 54.596 48.719 54.205 48.61 53.655 48.457 53.771 49.252 53.759 49.649 53.699 51.637 55.359 53.183 57.488 53.17 59.345 53.158 61.339 51.246 61.284 49.527 61.231 47.847 59.862 46.174 58.442 46.054 57.421 45.968 57.212 46.221 57.657 47.113 57.89 47.58 57.959 48.056 58.005 48.552ZM54.594 66.913C54.491 66.63 54.448 66.474 54.38 66.329 53.613 64.698 51.302 64.479 49.376 64.985 48.349 65.255 46.669 64.782 46.076 63.904 45.733 63.396 45.473 63.492 45.074 63.778 44.568 64.141 44.858 64.377 45.157 64.64 45.499 64.944 45.919 65.229 46.005 65.691 46.298 67.251 47.533 68.026 48.643 68.874 49.315 69.388 50.154 69.63 50.557 68.533 50.863 67.699 51.314 68.412 51.697 68.39 51.246 66.759 52.251 66.549 54.594 66.913ZM23.211 20.03C22.197 19.441 21.312 19.385 20.4 19.47 19.048 19.596 18.845 19.983 19.435 21.223 19.635 21.643 20.224 22.169 19.158 22.348 18.754 22.416 18.912 22.829 19.064 23.067 20.122 24.722 20.952 26.655 23.449 26.523 24.058 26.491 24.678 26.69 25.296 26.753 25.732 26.798 26.107 26.605 26.443 26.344 26.672 26.167 26.751 25.985 26.495 25.739 25.638 24.915 24.897 23.931 23.5 23.997 23.058 24.018 22.608 23.822 22.158 23.747 21.216 23.592 22.035 22.458 21.289 22.201 23.045 21.6 21.097 21.286 21.198 20.77 21.707 20.375 22.427 20.443 23.211 20.03ZM33.573 50.198C32.745 48.327 32.942 46.52 33.83 44.691 33.654 44.674 33.491 44.628 33.335 44.647 32.076 44.801 30.752 46.963 31.006 48.438 31.251 49.861 33.394 51.711 34.545 51.47 34.86 51.404 35.274 51.28 35.233 50.875 35.182 50.372 34.874 49.896 34.481 49.627 33.936 49.256 34.115 50.127 33.573 50.198ZM64.392 53.779C64.508 53.763 64.92 53.833 65.059 53.67 65.637 52.99 66.296 52.441 67.028 51.933 67.264 51.769 67.493 50.762 67.03 50.876 65.875 51.16 65.342 50.266 64.546 49.936 63.714 49.591 63.412 49.802 63.293 50.619 63.2 51.258 63.185 51.894 62.411 52.26 61.971 52.468 62.147 52.992 62.586 53.239 63.09 53.521 63.625 53.744 64.392 53.779ZM57.435 80.221C57.65 79.831 57.708 79.322 57.43 79.071 56.673 78.389 57.106 78.172 57.705 77.788 57.917 77.652 58.492 77.362 58.152 76.804 57.831 76.277 57.578 75.707 57.247 75.188 56.878 74.609 56.192 74.455 55.624 74.448 55.161 74.442 55.104 75.126 54.966 75.541 54.301 77.528 55.259 79.335 57.435 80.221ZM63.343 48.312C64.977 48.232 66.483 48.172 67.839 49.147 68.347 49.512 68.675 49.338 69.576 48.616 67.542 48.32 66.058 46.87 63.972 46.98 62.427 47.063 62.293 47.04 62.556 48.581 62.615 48.927 62.541 49.38 62.991 49.519 63.152 49.569 63.445 49.496 63.55 49.372 63.874 48.982 63.307 48.729 63.343 48.312ZM54.675 78.713C54.779 78.415 54.745 78.177 54.562 77.983 53.853 77.235 53.136 76.504 52.8 75.48 52.727 75.257 52.387 75.099 52.143 74.959 51.743 74.729 51.498 74.86 51.539 75.334 51.627 76.354 51.554 77.414 51.963 78.365 52.191 78.895 52.325 79.804 52.984 79.76 53.702 79.711 53.418 78.748 53.702 78.224 54.094 78.237 54.125 78.876 54.675 78.713ZM48.142 76.546C47.887 76.537 47.65 76.652 47.785 76.976 48.492 78.674 48.057 80.316 47.572 81.955 47.475 82.283 47.521 82.555 47.837 82.683 48.164 82.816 48.301 82.504 48.353 82.293 48.644 81.104 50.339 80.314 49.37 78.762 49.348 78.726 49.427 78.63 49.451 78.559 49.675 77.887 48.871 76.611 48.142 76.546ZM48.987 71.932C48.623 71.997 48.225 71.764 48.065 72.203 47.936 72.556 48.262 72.687 48.453 72.893 48.614 73.069 48.671 73.348 48.844 73.505 49.358 73.972 49.995 74.665 50.641 74.266 51.389 73.803 52.157 73.307 52.838 72.723 52.942 72.634 53.026 72.424 52.997 72.299 52.939 72.051 52.69 72.053 52.487 72.082 51.289 72.259 50.103 72.188 48.987 71.932ZM25.469 72.022C28.514 71.303 31.174 69.647 34.068 68.568 30.857 68.848 28.148 70.409 25.469 72.022ZM29.667 42.838C31.05 43.41 32.489 42.936 33.948 43.198 33.498 41.748 32.752 41.688 29.667 42.838ZM64.782 63.879C65.67 64.817 66.633 64.619 67.616 63.995 67.901 63.813 68.421 63.825 68.273 63.281 68.165 62.879 67.821 62.76 67.432 62.669 66.227 62.387 65.366 62.818 64.782 63.879ZM42.481 40.064C42.371 41.59 42.057 42.798 43.151 43.977 43.235 42.581 42.93 41.479 42.481 40.064ZM31.016 71.005C29.77 71.08 27.735 72.723 27.497 73.736 27.464 73.877 27.482 74.117 27.571 74.181 27.9 74.422 28.119 74.121 28.283 73.918 29.122 72.883 29.77 71.68 31.016 71.005ZM37.578 48.526C37.562 47.981 37.542 47.398 37.125 47.248 36.636 47.071 36.555 47.715 36.339 48.022 36.083 48.389 35.893 48.804 35.693 49.207 35.555 49.485 35.538 49.761 35.836 49.966 36.109 50.154 36.368 50.139 36.618 49.92 37.08 49.518 37.616 49.166 37.578 48.526ZM28.604 48.271C28.429 47.963 28.585 47.342 28.021 47.371 27.147 47.414 27.585 48.564 26.917 48.839 27.079 49.058 27.146 49.482 27.471 49.402 28.027 49.265 28.561 49.008 28.604 48.271ZM45.344 59.614C44.456 60.041 43.726 60.361 43.028 60.742 42.802 60.865 42.535 61.139 42.761 61.444 42.939 61.684 43.306 61.802 43.541 61.619 44.189 61.115 45.062 60.802 45.344 59.614ZM46.926 81.946C47.904 80.248 48.004 78.158 47.211 77.395 46.937 78.85 46.85 80.22 46.926 81.946ZM69.417 55.394C68.863 54.746 68.533 54.112 67.8 54.347 67.496 54.445 67.162 55.051 67.382 55.269 67.881 55.765 68.565 55.557 69.417 55.394ZM33.167 57.93C34.134 58.656 34.889 58.254 35.645 57.919 34.881 57.894 34.112 57.652 33.167 57.93ZM61.862 49.326C62.406 48.305 62.163 47.612 60.963 47 61.233 47.856 61.394 48.629 61.862 49.326ZM50.454 46.007C49.582 46.718 49.17 47.269 49.985 48.244 50.307 47.529 50.506 46.94 50.454 46.007ZM74.173 45.013C73.858 45.057 73.772 45.249 73.865 45.532 73.969 45.849 73.897 46.356 74.489 46.213 74.769 46.146 75.093 46.027 75.01 45.659 74.92 45.253 74.544 45.122 74.173 45.013ZM48.827 62.073C48.631 61.691 48.389 61.267 47.893 61.239 47.303 61.206 47.306 61.741 47.293 62.122 47.272 62.757 47.785 62.65 48.177 62.64 48.513 62.631 48.853 62.579 48.827 62.073Z" />
</svg>
